<svg xmlns="http://www.w3.org/2000/svg" version="1.1" xmlns:xlink="http://www.w3.org/1999/xlink" xmlns:svgjs="http://svgjs.dev/svgjs" width="1440" height="560" preserveAspectRatio="none" viewBox="0 0 1440 560"><g mask="url(&quot;#SvgjsMask1017&quot;)" fill="none"><path d="M -656.4085813630002,15 C -560.41,120.4 -368.41,542.8 -176.4085813630001,542 C 15.59,541.2 111.59,11.8 303.5914186369999,11 C 495.59,10.2 591.59,497.8 783.5914186369998,538 C 975.59,578.2 1132.31,252.8 1263.5914186369998,212 C 1394.87,171.2 1404.72,309.6 1440,334" stroke="rgba(121, 121, 121, 0.23)" stroke-width="2"></path><path d="M -859.1583679632657,287 C -763.16,265 -571.16,166 -379.15836796326573,177 C -187.16,188 -91.16,329.4 100.84163203673427,342 C 292.84,354.6 388.84,247.8 580.8416320367343,240 C 772.84,232.2 889.01,325.2 1060.8416320367342,303 C 1232.67,280.8 1364.17,163.8 1440,129" stroke="rgba(121, 121, 121, 0.23)" stroke-width="2"></path><path d="M -808.1263123513097,104 C -712.13,191.6 -520.13,512.4 -328.12631235130976,542 C -136.13,571.6 -40.13,269.4 151.87368764869024,252 C 343.87,234.6 439.87,479 631.8736876486903,455 C 823.87,431 950.25,128.6 1111.8736876486903,132 C 1273.5,135.4 1374.37,404 1440,472" stroke="rgba(121, 121, 121, 0.23)" stroke-width="2"></path><path d="M -234.0491322213619,139 C -138.05,208.6 53.95,460 245.9508677786381,487 C 437.95,514 533.95,307.6 725.9508677786381,274 C 917.95,240.4 1013.95,328.8 1205.950867778638,319 C 1397.95,309.2 1639.14,197.2 1685.950867778638,225 C 1732.76,252.8 1489.19,411.4 1440,458" stroke="rgba(121, 121, 121, 0.23)" stroke-width="2"></path><path d="M -31.561745478555622,195 C 64.44,245.6 256.44,441.2 448.4382545214444,448 C 640.44,454.8 736.44,249.4 928.4382545214444,229 C 1120.44,208.6 1216.44,372.2 1408.4382545214444,346 C 1600.44,319.8 1882.13,97.4 1888.4382545214444,98 C 1894.75,98.6 1529.69,298.8 1440,349" stroke="rgba(121, 121, 121, 0.23)" stroke-width="2"></path><path d="M -656.0922230695513,519 C -560.09,436.4 -368.09,111.4 -176.0922230695513,106 C 15.91,100.6 111.91,492 303.9077769304487,492 C 495.91,492 591.91,96.6 783.9077769304487,106 C 975.91,115.4 1132.69,506 1263.9077769304488,539 C 1395.13,572 1404.78,324.6 1440,271" stroke="rgba(121, 121, 121, 0.23)" stroke-width="2"></path></g><defs><mask id="SvgjsMask1017"><rect width="1440" height="560" fill="#ffffff"></rect></mask></defs></svg>